<?xml version="1.0" encoding="UTF-8" standalone="no"?>
  <svg
    xmlns="http://www.w3.org/2000/svg"
    width="499.8"
    height="357.37"
    viewBox="0 0 468.563 335.034"
  >
    <title>Aiga coatcheck</title>
    <path
      d="M-2190.064 1371.56c-12.485-2.154-23.951-9.783-30.797-20.49-10.372-16.222-7.412-42.127 6.393-55.936 2.788-2.79 36.562-23.086 105.797-63.58l101.702-59.483-.298-8.185c-.273-7.534-.536-8.435-3.297-11.331-1.65-1.73-6.571-5.653-10.935-8.718-10.984-7.711-15.886-13.091-20.596-22.602-8.033-16.222-7.707-33.763.951-51.164 12.855-25.837 36.612-37.12 65.337-31.034 20.02 4.243 37.89 21.647 43.215 42.086 3.09 11.867 1.62 19.526-4.841 25.199-4.306 3.78-7.265 4.695-12.79 3.954-7.233-.97-10.894-5.964-12.817-17.485-1.631-9.775-5.588-15.691-13.024-19.471-10.34-5.256-20.533-4.492-29.819 2.234-9.06 6.563-12.147 21.435-6.742 32.481 3.057 6.248 6.527 9.48 14.5 13.505 7.906 3.991 15.121 10.82 18.512 17.521 2.631 5.201 2.93 6.884 3.464 19.563l.585 13.872 100 59.1c71.947 42.52 101.356 60.414 104.834 63.787 12.335 11.963 15.605 30.912 8.577 49.697-5.3 14.163-17.911 23.662-35.124 26.455-7.47 1.213-385.765 1.236-392.787.024zm390.81-34.015c3.57-2.176 6.19-7.169 6.19-11.794 0-7.068.821-6.531-101.531-66.405-53.333-31.198-97.644-56.716-98.469-56.706-.825.01-45.6 25.762-99.5 57.226-91.109 53.184-98.13 57.473-99.853 61-2.59 5.298-1.53 10.057 3.318 14.905l3.8 3.8h191.367c190.179 0 191.389-.016 194.678-2.022z"
      style="fill:#000"
      transform="translate(2227.068 -1037.422)"
    />
  </svg>
